<mxfile host="app.diagrams.net" modified="2023-03-29T11:34:32.899Z" agent="Mozilla/5.0 (Macintosh; Intel Mac OS X 10_15_7) AppleWebKit/605.1.15 (KHTML, like Gecko) Version/16.3 Safari/605.1.15" version="21.1.1" etag="5iO1u6ecSmfRCAynSIbf" type="github">
  <diagram name="Page-1" id="9_-TIgj-6-0cFIaiFEr-">
    <mxGraphModel>
      <root>
        <mxCell id="0" />
        <mxCell id="1" parent="0" />
      </root>
    </mxGraphModel>
  </diagram>
</mxfile>
